<?xml version="1.0" encoding="UTF-8" standalone="no"?>
<!-- Generator: Adobe Illustrator 16.0.0, SVG Export Plug-In . SVG Version: 6.00 Build 0)  -->

<svg
   version="1.1"
   id="Capa_1"
   x="0px"
   y="0px"
   width="150"
   height="150"
   viewBox="0 0 149.99999 150"
   xml:space="preserve"
   sodipodi:docname="codeIcon.svg"
   inkscape:version="1.1 (c68e22c387, 2021-05-23)"
   xmlns:inkscape="http://www.inkscape.org/namespaces/inkscape"
   xmlns:sodipodi="http://sodipodi.sourceforge.net/DTD/sodipodi-0.dtd"
   xmlns="http://www.w3.org/2000/svg"
   xmlns:svg="http://www.w3.org/2000/svg"><defs
   id="defs90" /><sodipodi:namedview
   id="namedview88"
   pagecolor="#ffffff"
   bordercolor="#666666"
   borderopacity="1.0"
   inkscape:pageshadow="2"
   inkscape:pageopacity="0.0"
   inkscape:pagecheckerboard="0"
   showgrid="false"
   inkscape:zoom="1.181769"
   inkscape:cx="6.346418"
   inkscape:cy="175.58423"
   inkscape:window-width="1920"
   inkscape:window-height="1017"
   inkscape:window-x="1912"
   inkscape:window-y="-8"
   inkscape:window-maximized="1"
   inkscape:current-layer="layer2"
   borderlayer="false"
   fit-margin-top="0"
   fit-margin-left="0"
   fit-margin-right="0"
   fit-margin-bottom="0" />

<g
   id="g57"
   transform="translate(75.847195,66.300132)">
</g>
<g
   id="g59"
   transform="translate(75.847195,66.300132)">
</g>
<g
   id="g61"
   transform="translate(75.847195,66.300132)">
</g>
<g
   id="g63"
   transform="translate(75.847195,66.300132)">
</g>
<g
   id="g65"
   transform="translate(75.847195,66.300132)">
</g>
<g
   id="g67"
   transform="translate(75.847195,66.300132)">
</g>
<g
   id="g69"
   transform="translate(75.847195,66.300132)">
</g>
<g
   id="g71"
   transform="translate(75.847195,66.300132)">
</g>
<g
   id="g73"
   transform="translate(75.847195,66.300132)">
</g>
<g
   id="g75"
   transform="translate(75.847195,66.300132)">
</g>
<g
   id="g77"
   transform="translate(75.847195,66.300132)">
</g>
<g
   id="g79"
   transform="translate(75.847195,66.300132)">
</g>
<g
   id="g81"
   transform="translate(75.847195,66.300132)">
</g>
<g
   id="g83"
   transform="translate(75.847195,66.300132)">
</g>
<g
   id="g85"
   transform="translate(75.847195,66.300132)">
</g>
<g
   inkscape:groupmode="layer"
   id="layer1"
   inkscape:label="Background"
   style="display:inline"
   transform="translate(39.999995,39.999997)"><path
     style="fill:#cdd2d7;fill-opacity:1;fill-rule:evenodd"
     id="path404"
     sodipodi:type="arc"
     sodipodi:cx="-4.3139882"
     sodipodi:cy="49.309128"
     sodipodi:rx="75"
     sodipodi:ry="75"
     sodipodi:start="0"
     sodipodi:end="6.2607685"
     sodipodi:arc-type="arc"
     d="M 70.686012,49.309128 A 75,75 0 0 1 -3.8936753,124.30795 75,75 0 0 1 -79.309277,50.14974 75,75 0 0 1 -5.5748742,-25.680273 75,75 0 0 1 70.667168,47.628008"
     transform="rotate(-50)"
     sodipodi:open="true" /></g><g
   inkscape:groupmode="layer"
   id="layer2"
   inkscape:label="Logo"
   transform="translate(39.999995,39.999997)"><g
     id="g55"
     transform="matrix(0.18408341,0,0,0.18973134,-14.999996,-16.534264)">
	<g
   id="g53">
		<path
   d="m 85.972,416.447 c 5.838,9.139 15.716,14.133 25.814,14.133 5.637,0 11.347,-1.555 16.444,-4.816 14.241,-9.102 18.409,-28.023 9.309,-42.26 L 66.915,272.953 137.546,162.413 c 9.1,-14.241 4.933,-33.158 -9.309,-42.258 -14.248,-9.095 -33.158,-4.933 -42.259,9.309 L 4.815,256.478 c -6.42,10.043 -6.42,22.907 0,32.95 z"
   id="path47" />
		<path
   d="m 415.002,425.756 c 5.104,3.264 10.808,4.816 16.444,4.816 10.092,0 19.976,-4.986 25.813,-14.131 l 81.158,-127.014 c 6.42,-10.043 6.42,-22.907 0,-32.95 L 457.266,129.463 c -9.095,-14.248 -28.03,-18.416 -42.259,-9.309 -14.241,9.1 -18.409,28.023 -9.309,42.258 l 70.631,110.54 -70.637,110.545 c -9.099,14.235 -4.931,33.159 9.31,42.259 z"
   id="path49" />
		<path
   d="m 165.667,492.6 c 4.272,2.043 8.776,3.018 13.213,3.018 11.401,0 22.35,-6.402 27.613,-17.375 L 391.979,91.452 c 7.307,-15.239 0.881,-33.519 -14.357,-40.82 -15.245,-7.307 -33.52,-0.881 -40.821,14.357 l -185.492,386.79 c -7.307,15.239 -0.881,33.52 14.358,40.821 z"
   id="path51" />
	</g>
</g></g></svg>
