<?xml version="1.0" encoding="UTF-8" standalone="no"?>
<!-- Generator: Adobe Illustrator 19.0.0, SVG Export Plug-In . SVG Version: 6.00 Build 0)  -->

<svg
   version="1.1"
   id="Layer_1"
   x="0px"
   y="0px"
   viewBox="0 0 485 485"
   xml:space="preserve"
   sodipodi:docname="userIcon.svg"
   style="enable-background:new 0 0 485 485;"
   inkscape:version="1.1 (c68e22c387, 2021-05-23)"
   xmlns:inkscape="http://www.inkscape.org/namespaces/inkscape"
   xmlns:sodipodi="http://sodipodi.sourceforge.net/DTD/sodipodi-0.dtd"
   xmlns="http://www.w3.org/2000/svg"
   xmlns:svg="http://www.w3.org/2000/svg"><defs
   id="defs49" /><sodipodi:namedview
   id="namedview47"
   pagecolor="#ffffff"
   bordercolor="#666666"
   borderopacity="1.0"
   inkscape:pageshadow="2"
   inkscape:pageopacity="0.0"
   inkscape:pagecheckerboard="0"
   showgrid="false"
   inkscape:zoom="1.7154639"
   inkscape:cx="74.906851"
   inkscape:cy="256.19892"
   inkscape:window-width="1920"
   inkscape:window-height="1017"
   inkscape:window-x="1912"
   inkscape:window-y="-8"
   inkscape:window-maximized="1"
   inkscape:current-layer="Layer_1" />
<g
   id="g14"
   transform="matrix(0.5,0,0,0.5,121.25,121.25)">
	<g
   id="g12">
		<g
   id="g10">
			<path
   d="m 340.4,360.553 c -8.933,-4.706 -30.926,-17.169 -40.4,-26.111 v -24.3 c 30.386,-17.373 51.165,-48.544 57.804,-86.697 C 375.018,218.516 390,202.361 390,187.5 390,172.456 378.692,162.474 360,160.406 V 70.609 l -0.896,-1.665 C 358.721,68.233 349.516,51.345 330.632,34.416 305.519,11.9 275.043,0 242.5,0 209.957,0 179.481,11.9 154.368,34.416 135.484,51.346 126.279,68.233 125.896,68.944 L 125,70.609 v 89.796 c -18.692,2.068 -30,12.051 -30,27.094 0,14.861 14.982,31.017 32.196,35.946 6.646,38.167 27.428,69.336 57.804,86.697 v 24.299 c -9.48,8.947 -31.494,21.42 -40.417,26.119 -97.482,31.626 -99.542,89.368 -99.582,91.816 L 45,485 h 395 v -32.541 c -0.014,-2.463 -1.455,-60.569 -99.6,-91.906 z M 360,175.482 c 13.367,1.874 15,8.786 15,12.018 0,6.126 -6.627,14.466 -15.266,19.07 0.165,-2.964 0.266,-31.088 0.266,-31.088 z M 110,187.5 c 0,-3.232 1.633,-10.144 15,-12.018 0,0 0.101,28.125 0.266,31.088 C 116.627,201.966 110,193.626 110,187.5 Z M 140,74.522 c 2.603,-4.297 10.835,-16.89 24.78,-29.293 C 187.332,25.17 213.481,15 242.5,15 c 29.019,0 55.168,10.17 77.72,30.229 13.952,12.408 22.185,25.008 24.78,29.294 v 70.08 C 300.565,140.163 240.966,99.25 237.031,96.517 234.968,94.821 215.885,78.975 203.427,62.905 l -11.855,9.191 c 9.215,11.886 21.377,23.327 29.002,30.074 -28.696,20.344 -64.597,28.693 -80.574,31.574 V 74.522 Z m 1.227,141.634 C 140.413,210.363 140,204.087 140,197.5 v -45 -3.501 c 16.352,-2.678 59.21,-11.768 92.822,-37.202 15.971,10.654 69.204,44.164 112.178,47.869 V 197.5 c 0,6.587 -0.413,12.863 -1.229,18.674 -5.158,37.347 -25.102,67.549 -54.733,82.874 C 275.075,306.315 259.418,310 242.5,310 c -16.918,0 -32.575,-3.685 -46.555,-10.962 -29.614,-15.315 -49.557,-45.517 -54.718,-82.882 z M 285,317.299 v 17.312 c -4.884,5.106 -19.858,18.96 -39.506,20.277 l -5.987,-0.002 C 219.976,353.56 204.905,339.687 200,334.595 v -17.298 c 13.182,5.109 27.424,7.703 42.5,7.703 15.079,0 29.324,-2.595 42.5,-7.701 z M 60,470 v -17.362 c 0.048,-0.88 0.904,-12.937 11.582,-28.015 18.801,-26.55 52.912,-41.836 78.217,-49.984 0,0 28.46,-14.881 42.447,-26.6 6.563,6.18 18.6,15.628 34.285,19.823 l -39.335,39.334 10.607,10.607 44.696,-44.697 44.696,44.697 10.607,-10.607 -39.335,-39.334 c 15.685,-4.195 27.722,-13.643 34.285,-19.823 13.987,11.719 42.481,26.61 42.481,26.61 25.456,8.064 59.721,23.257 78.396,49.836 10.718,15.254 11.344,27.458 11.368,28.096 V 470 Z"
   id="path2" />
			<rect
   x="232.5"
   y="405"
   width="20"
   height="15"
   id="rect4" />
			<rect
   x="232.5"
   y="435"
   width="20"
   height="15"
   id="rect6" />
			<path
   d="m 242.5,235 h 20 V 220 H 250 v -32.5 h -15 v 40 c 0,4.143 3.357,7.5 7.5,7.5 z"
   id="path8" />
		</g>
	</g>
</g>
<g
   id="g16">
</g>
<g
   id="g18">
</g>
<g
   id="g20">
</g>
<g
   id="g22">
</g>
<g
   id="g24">
</g>
<g
   id="g26">
</g>
<g
   id="g28">
</g>
<g
   id="g30">
</g>
<g
   id="g32">
</g>
<g
   id="g34">
</g>
<g
   id="g36">
</g>
<g
   id="g38">
</g>
<g
   id="g40">
</g>
<g
   id="g42">
</g>
<g
   id="g44">
</g>
</svg>
